<?xml version="1.0" encoding="UTF-8"?>
<svg id="_图层_1" data-name="图层 1" xmlns="http://www.w3.org/2000/svg" viewBox="0 0 566.93 566.93">
  <defs>
    <style>
      .cls-1, .cls-2 {
        fill: #3571b8;
      }

      .cls-2 {
        font-family: Skia-Regular, Skia;
        font-size: 32.5px;
        font-variation-settings: 'wght' 1, 'wdth' 1;
        opacity: .28;
      }
    </style>
  </defs>
  <g>
    <path class="cls-1" d="m287.29,384.43c.42.19.64.26.68.21-1.11-.44-1.41-.54-.68-.21Z"/>
    <path class="cls-1" d="m360.88,397.88c-53.28-17.93-30.84-61.95,13.94-107.51,63.85-64.95,173.12-133.02,173.12-133.02-200.48,12.26-251.19,167.81-262.03,175.65-12.29,8.89-33.16-14.05-36.24-31.33-1.79-10.06,2.09-19,5.88-27.73,11.21-25.82,28.69-34.4,27.25-37.46-2.14-4.52-42.01,10.75-54.28,26.09-3.72-10.25-11.06-17.16-14.17-19.97-27.83-25.24-47.84-32.87-47.85-32.87-31.33-11.91-81.62-34.02-147.52-62.69,34.65,29.44,65.31,48.21,88.38,60.4,0,0,58.69,30.99,95.03,76.45,1.34,1.68,4.74,6.04,3.74,9.96-.92,3.61-5.12,4.98-7.73,6.09-3.13,1.34-8.73,7.01-19.94,18.35-9.22,9.33-30.23,32.6-56.93,64.97,71.94-44.75,88.64-52.87,89.49-51.2.77,1.52-11.86,10.7-28.57,26.76-22.21,21.34-38.16,41.9-48.51,56.57,16.39-10.96,32.78-21.92,49.17-32.87,26.61-21.08,40.54-32.11,40.54-32.11,0,0,15.29.56,15.28.76,0,.02-.12,0-.14.05-.17.47,9.62,4.56,18.75,10.66,5.8,3.87,4.15,3.77,13.25,10.56,8.1,6.05,17.27,12.02,17.18,12.22,0,0,0,0,0,0,10.2,4.06,89.76,37.38,89.76,37.38,0,0,55.36,4.35,29.92-2.37-25.45-6.73,82.49,21.72-46.77-21.76Z"/>
  </g>
  <text class="cls-2" transform="translate(369.58 341.87) rotate(-39.62) scale(1.11 1)"><tspan x="0" y="0">pterosaur</tspan></text>
</svg>